<svg width="22" height="18" viewBox="0 0 22 18" fill="none" xmlns="http://www.w3.org/2000/svg">
<path d="M10 18L6.825 15.15C5.625 14.0667 4.596 13.1 3.738 12.25C2.87933 11.4 2.171 10.6 1.613 9.85C1.05433 9.1 0.646 8.375 0.388 7.675C0.129333 6.975 0 6.24167 0 5.475C0 3.90833 0.525 2.604 1.575 1.562C2.625 0.520666 3.93333 0 5.5 0C6.36667 0 7.19167 0.183333 7.975 0.55C8.75833 0.916667 9.43333 1.43333 10 2.1C10.5667 1.43333 11.2417 0.916667 12.025 0.55C12.8083 0.183333 13.6333 0 14.5 0C15.85 0 16.9833 0.379 17.9 1.137C18.8167 1.89567 19.4417 2.85 19.775 4H17.65C17.35 3.33333 16.9083 2.83333 16.325 2.5C15.7417 2.16667 15.1333 2 14.5 2C13.65 2 12.9167 2.22933 12.3 2.688C11.6833 3.146 11.1083 3.75 10.575 4.5H9.425C8.90833 3.75 8.321 3.146 7.663 2.688C7.00433 2.22933 6.28333 2 5.5 2C4.55 2 3.729 2.329 3.037 2.987C2.34567 3.64567 2 4.475 2 5.475C2 6.025 2.11667 6.58333 2.35 7.15C2.58333 7.71667 3 8.371 3.6 9.113C4.2 9.85433 5.01667 10.7207 6.05 11.712C7.08333 12.704 8.4 13.9 10 15.3C10.4333 14.9167 10.9417 14.475 11.525 13.975C12.1083 13.475 12.575 13.0583 12.925 12.725L13.15 12.95L13.637 13.438L14.125 13.925L14.35 14.15C13.9833 14.4833 13.5167 14.8957 12.95 15.387C12.3833 15.879 11.8833 16.3167 11.45 16.7L10 18ZM17 14V11H14V9H17V6H19V9H22V11H19V14H17Z" fill="black"/>
</svg>
