<svg width="38" height="38" viewBox="0 0 38 38" fill="none" xmlns="http://www.w3.org/2000/svg">
<path d="M37.0004 37.0004L28.3144 28.3144M28.3144 28.3144C29.8002 26.8286 30.9788 25.0648 31.7829 23.1235C32.587 21.1822 33.0008 19.1016 33.0008 17.0004C33.0008 14.8992 32.587 12.8186 31.7829 10.8773C30.9788 8.93606 29.8002 7.17219 28.3144 5.68641C26.8286 4.20064 25.0648 3.02205 23.1235 2.21796C21.1822 1.41386 19.1016 1 17.0004 1C14.8992 1 12.8186 1.41386 10.8773 2.21796C8.93606 3.02205 7.17219 4.20064 5.68641 5.68641C2.68575 8.68707 1 12.7568 1 17.0004C1 21.244 2.68575 25.3138 5.68641 28.3144C8.68707 31.3151 12.7568 33.0008 17.0004 33.0008C21.244 33.0008 25.3138 31.3151 28.3144 28.3144Z" stroke="black" stroke-width="2" stroke-linecap="round" stroke-linejoin="round"/>
</svg>
