<svg width="32" height="32" viewBox="0 0 32 32" fill="none" xmlns="http://www.w3.org/2000/svg">
<path d="M28.2251 17.568C28.2909 17.056 28.3403 16.544 28.3403 16C28.3403 15.456 28.2909 14.944 28.2251 14.432L31.6958 11.792C32.0084 11.552 32.0906 11.12 31.8932 10.768L28.6035 5.232C28.4554 4.976 28.1758 4.832 27.8797 4.832C27.781 4.832 27.6823 4.848 27.6001 4.88L23.5043 6.48C22.649 5.84 21.7278 5.312 20.7245 4.912L20.0994 0.672C20.05 0.288 19.7046 0 19.2934 0H12.7139C12.3026 0 11.9572 0.288 11.9079 0.672L11.2828 4.912C10.2794 5.312 9.3583 5.856 8.50296 6.48L4.40719 4.88C4.3085 4.848 4.20981 4.832 4.11111 4.832C3.83148 4.832 3.55185 4.976 3.40381 5.232L0.114042 10.768C-0.0997926 11.12 -0.00109928 11.552 0.311429 11.792L3.78214 14.432C3.71634 14.944 3.66699 15.472 3.66699 16C3.66699 16.528 3.71634 17.056 3.78214 17.568L0.311429 20.208C-0.00109928 20.448 -0.0833438 20.88 0.114042 21.232L3.40381 26.768C3.55185 27.024 3.83148 27.168 4.12756 27.168C4.22626 27.168 4.32495 27.152 4.40719 27.12L8.50296 25.52C9.3583 26.16 10.2794 26.688 11.2828 27.088L11.9079 31.328C11.9572 31.712 12.3026 32 12.7139 32H19.2934C19.7046 32 20.05 31.712 20.0994 31.328L20.7245 27.088C21.7278 26.688 22.649 26.144 23.5043 25.52L27.6001 27.12C27.6988 27.152 27.7975 27.168 27.8962 27.168C28.1758 27.168 28.4554 27.024 28.6035 26.768L31.8932 21.232C32.0906 20.88 32.0084 20.448 31.6958 20.208L28.2251 17.568ZM24.9683 14.832C25.0341 15.328 25.0505 15.664 25.0505 16C25.0505 16.336 25.0176 16.688 24.9683 17.168L24.738 18.976L26.2019 20.096L27.9784 21.44L26.827 23.376L24.738 22.56L23.0273 21.888L21.5469 22.976C20.8396 23.488 20.1652 23.872 19.4908 24.144L17.7472 24.832L17.484 26.64L17.1551 28.8H14.8522L14.5397 26.64L14.2765 24.832L12.5329 24.144C11.8256 23.856 11.1677 23.488 10.5097 23.008L9.01287 21.888L7.26929 22.576L5.18029 23.392L4.02887 21.456L5.80535 20.112L7.26929 18.992L7.03901 17.184C6.98966 16.688 6.95676 16.32 6.95676 16C6.95676 15.68 6.98966 15.312 7.03901 14.832L7.26929 13.024L5.80535 11.904L4.02887 10.56L5.18029 8.624L7.26929 9.44L8.97997 10.112L10.4604 9.024C11.1677 8.512 11.8421 8.128 12.5165 7.856L14.2601 7.168L14.5232 5.36L14.8522 3.2H17.1386L17.4511 5.36L17.7143 7.168L19.4579 7.856C20.1652 8.144 20.8231 8.512 21.4811 8.992L22.9779 10.112L24.7215 9.424L26.8105 8.608L27.9619 10.544L26.2019 11.904L24.738 13.024L24.9683 14.832ZM16.0036 9.6C12.3684 9.6 9.42409 12.464 9.42409 16C9.42409 19.536 12.3684 22.4 16.0036 22.4C19.6388 22.4 22.5832 19.536 22.5832 16C22.5832 12.464 19.6388 9.6 16.0036 9.6ZM16.0036 19.2C14.1943 19.2 12.7139 17.76 12.7139 16C12.7139 14.24 14.1943 12.8 16.0036 12.8C17.813 12.8 19.2934 14.24 19.2934 16C19.2934 17.76 17.813 19.2 16.0036 19.2Z" fill="#5A5A5A"/>
</svg>
